<?xml version="1.0" encoding="utf-8"?>
<!-- Generator: Adobe Illustrator 19.2.1, SVG Export Plug-In . SVG Version: 6.00 Build 0)  -->
<svg version="1.1" id="Layer_1" xmlns="http://www.w3.org/2000/svg" xmlns:xlink="http://www.w3.org/1999/xlink" x="0px" y="0px"
	 viewBox="0 0 130.3 71.5" style="enable-background:new 0 0 130.3 71.5;" xml:space="preserve">
<style type="text/css">
	.st0{display:none;}
	.st1{display:inline;}
	.st2{fill:#FFFFFF;}
	.st3{fill:#006DC1;}
</style>
<g id="Layer_1_1_" class="st0">
	<g class="st1">
		<g>
			<g>
				<polygon class="st2" points="166.2,36.5 147.2,18.7 145.8,18.7 145.8,59.3 153.9,59.3 153.9,35.1 165.6,46.8 166.9,46.8 
					178.5,35.1 178.5,59.3 186.6,59.3 186.6,18.7 185.4,18.7 				"/>
				<polygon class="st2" points="275,41.6 249.1,18.7 247.9,18.7 247.9,59.3 256,59.3 256,36.1 281.9,59.3 283.1,59.3 283.1,18.7 
					275,18.7 				"/>
				<path class="st2" d="M315.8,17.8c-12.5,0-21.2,8.7-21.2,21.2c0,12.3,8.9,21.2,21.2,21.2c12.3,0,21.3-8.9,21.3-21.2
					C337,26.6,328.3,17.8,315.8,17.8z M315.8,52.3c-7.6,0-12.9-5.5-12.9-13.3c0-7.9,5.3-13.4,12.9-13.4c7.7,0,13,5.5,13,13.4
					S323.4,52.3,315.8,52.3z"/>
				<path class="st2" d="M381.7,32.5c0.1-3.8-1.2-6.8-3.6-9.3c-2.9-3-7.3-4.6-12.7-4.6h-17.7v40.6h8.1V47.1h9.9l7.9,12.2h9.7
					L374,45.2C378.9,42.6,381.5,38.4,381.7,32.5z M355.7,26h9.4c5.4,0,8.5,2.2,8.5,6.7c0,4.6-3,7.1-8.1,7.1h-9.8V26z"/>
				<path class="st2" d="M216.4,18.7l-20.8,40.6h9.1l4.7-9.8H225l4.6,9.8h9.2L218,18.7H216.4z M221.6,42.3h-8.8l4.4-9.3L221.6,42.3z
					"/>
			</g>
			<path class="st2" d="M438.6,32.8c0-8.7-5.7-13.4-16-13.4h-15.2V60h3V45.9h14.2L434.8,60h3.8l-10.4-14.5
				C434.8,44,438.6,39.5,438.6,32.8z M435.5,32.8c0,9.2-8.3,10.1-11.9,10.1h-13.2V22.3h12.2C428.5,22.3,435.5,24.1,435.5,32.8z"/>
			<path class="st2" d="M512.5,21.5c7.8,0,11.8,4.6,11.8,4.6l2.5-1.6l-0.4-0.5c-0.2-0.2-4.8-5.5-13.9-5.5
				c-11.9,0-20.8,9.1-20.8,21.3c0,12,9,21.1,20.8,21.1c9.1,0,13.7-5.5,13.9-5.7l0.4-0.5l-2.5-1.6c0,0-4,4.8-11.8,4.8
				c-10,0-17.8-8-17.8-18.1C494.7,29.3,502.4,21.5,512.5,21.5z"/>
			<rect x="540.1" y="19.4" class="st2" width="3" height="40.6"/>
			<polygon class="st2" points="589.9,53.2 560.1,19.4 559,19.4 559,60 562,60 562,26 591.6,60 592.9,60 592.9,19.4 589.9,19.4 			
				"/>
			<path class="st2" d="M465.9,19.4L446.7,60h3.3l6.6-14.1h20l6.6,14.1h3.4l-19.1-40.6C467.5,19.4,465.9,19.4,465.9,19.4z
				 M458.1,42.9l8.6-18.3l8.6,18.3H458.1z"/>
			<path class="st2" d="M625.6,38.9v2.9h14.6v11.5c-2.4,2-7.1,5-13.2,5c-11.5,0-17.5-9.3-17.5-18.5c0-9.1,6.5-18.4,17.4-18.4
				c5.5,0,9,1.9,12.5,4.7l0.6,0.5l1.8-2.2l-0.6-0.5c-3.8-3.2-7.7-5.3-14.2-5.3c-13.2,0-20.3,10.9-20.3,21.4
				c0,12.4,8.3,21.1,20.3,21.1c7.4,0,12.7-3.4,15.9-6.3l0.3-0.2V38.9H625.6z"/>
		</g>
		<g>
			<g>
				<path class="st2" d="M28.1,8c0.7-2.3,1.6-3.6,2.6-4.2c-1.5,0-2.9-0.1-3.8-0.1c-2,0-4.6-0.1-6.2,5.1L1,71.3h7.2L28.1,8z"/>
				<g>
					<path class="st2" d="M75.5,52.7L89.5,8c0.7-2.3,1.6-3.6,2.6-4.3c-1.9,0-2.9,0-3.8,0c-1.9,0-4.6-0.3-6.2,4.9L71.9,41.3
						L75.5,52.7z"/>
					<polygon class="st2" points="95.5,34.5 107.1,71.3 114.3,71.3 99.1,23.1 					"/>
					<path class="st2" d="M42.5,8c0.7-2.3,1.6-3.6,2.6-4.3c-1.5,0-2.8-0.1-3.7-0.1c-1.9,0-4.6-0.1-6.2,5.1L15.4,71.3h7.2L42.5,8z"/>
					<path class="st2" d="M66,67.4C62.5,56.3,52.1,23,52.1,23l-3.6,11.4l10.2,32.5c1.5,4.9,4.3,4.5,6.2,4.5c0.9,0,2.6,0,3.7,0
						C67.6,70.9,66.7,69.7,66,67.4z"/>
				</g>
				<path class="st2" d="M108.9,8.8c-1.6-5.2-4.3-5.1-6.2-5.1l0,0c-1.9,0-4.6-0.1-6.2,5.1l-17.3,55L68.4,29.6L75.2,8
					c0.7-2.3,1.6-3.6,2.6-4.2c-1.7,0-2.9,0-3.8,0c-1.9,0-4.6-0.1-6.2,5l-2.9,9.4l-3-9.4c-1.6-5.2-4.3-5.1-6.2-5.1l0,0
					c-1.9,0-4.6-0.1-6.2,5.1L29.8,71.3H37l4.4-13.8l2.9,9.3c1.6,4.8,4.3,4.6,6.2,4.6c0.9,0,2.1,0,3.8,0c-1-0.6-1.9-1.7-2.6-4
					L45,46.1l10.8-34.2l17.4,55c1.6,5.2,4.3,4.6,6.2,4.6l0,0c1.9,0,4.6,0.6,6.2-4.6l2.9-9.4l4.3,13.8h7.2l-8-25.2l10.8-34.3
					l18.7,59.4h7.2L108.9,8.8z"/>
			</g>
		</g>
	</g>
</g>
<g id="Layer_2">
	<g>
		<g>
			<path class="st3" d="M28.1,8c0.7-2.3,1.6-3.6,2.6-4.2c-1.5,0-2.9-0.1-3.8-0.1c-2,0-4.6-0.1-6.2,5.1L1,71.3h7.2L28.1,8z"/>
			<g>
				<path class="st3" d="M75.5,52.7L89.5,8c0.7-2.3,1.6-3.6,2.6-4.3c-1.9,0-2.9,0-3.8,0c-1.9,0-4.6-0.3-6.2,4.9L71.9,41.3L75.5,52.7
					z"/>
				<polygon class="st3" points="95.5,34.5 107.1,71.3 114.3,71.3 99.1,23.1 				"/>
				<path class="st3" d="M42.5,8c0.7-2.3,1.6-3.6,2.6-4.3c-1.5,0-2.8-0.1-3.7-0.1c-1.9,0-4.6-0.1-6.2,5.1L15.4,71.3h7.2L42.5,8z"/>
				<path class="st3" d="M66,67.4C62.5,56.3,52.1,23,52.1,23l-3.6,11.4l10.2,32.5c1.5,4.9,4.3,4.5,6.2,4.5c0.9,0,2.6,0,3.7,0
					C67.6,70.9,66.7,69.7,66,67.4z"/>
			</g>
			<path class="st3" d="M108.9,8.8c-1.6-5.2-4.3-5.1-6.2-5.1l0,0c-1.9,0-4.6-0.1-6.2,5.1l-17.3,55L68.4,29.6L75.2,8
				c0.7-2.3,1.6-3.6,2.6-4.2c-1.7,0-2.9,0-3.8,0c-1.9,0-4.6-0.1-6.2,5l-2.9,9.4l-3-9.4c-1.6-5.2-4.3-5.1-6.2-5.1l0,0
				c-1.9,0-4.6-0.1-6.2,5.1L29.8,71.3H37l4.4-13.8l2.9,9.3c1.6,4.8,4.3,4.6,6.2,4.6c0.9,0,2.1,0,3.8,0c-1-0.6-1.9-1.7-2.6-4L45,46.1
				l10.8-34.2l17.4,55c1.6,5.2,4.3,4.6,6.2,4.6l0,0c1.9,0,4.6,0.6,6.2-4.6l2.9-9.4l4.3,13.8h7.2l-8-25.2l10.8-34.3l18.7,59.4h7.2
				L108.9,8.8z"/>
		</g>
	</g>
</g>
</svg>
